<?xml version="1.0" encoding="UTF-8" standalone="no"?>
<!-- Created with Inkscape (http://www.inkscape.org/) -->

<svg
   width="225.45021mm"
   height="185mm"
   viewBox="0 0 225.45022 185.00001"
   version="1.1"
   id="svg1"
   xmlns="http://www.w3.org/2000/svg"
   xmlns:svg="http://www.w3.org/2000/svg">
  <defs
     id="defs1" />
  <g
     id="layer1"
     transform="translate(-12.049798,-50)">
    <path
       id="path11236"
       style="fill:#3d79aa;fill-opacity:1;stroke-width:0;stroke-miterlimit:0;paint-order:markers fill stroke"
       d="m 200,125 a 75,75 0 0 1 -75,75 75,75 0 0 1 -75,-75 75,75 0 0 1 75,-75 75,75 0 0 1 75,75 z" />
    <path
       d="m 82.573618,82.573632 a 60.000001,60.000001 0 0 0 1e-5,84.852748 60.000001,60.000001 0 0 0 84.852742,0 60.000001,60.000001 0 0 0 0,-84.852768 60.000001,60.000001 0 0 0 -84.852752,2e-5 z"
       style="fill:#ffe262;fill-opacity:1;stroke-width:0;stroke-miterlimit:0;paint-order:markers fill stroke"
       id="path1" />
    <g
       id="g13"
       style="fill:#3d79aa;fill-opacity:1"
       transform="translate(19.999997,-23.500001)">
      <path
         d="m 140.35537,113.14462 a 50.000035,50.000035 0 0 0 -70.710681,0 50.000035,50.000035 0 0 0 0,70.71067 50.000035,50.000035 0 0 0 70.710681,0 50.000035,50.000035 0 0 0 0,-70.71067 z"
         style="fill:#3d79aa;fill-opacity:1;stroke-width:0;stroke-miterlimit:0;paint-order:markers fill stroke"
         id="path1-4" />
      <rect
         style="fill:#3d79aa;fill-opacity:1;stroke-width:299.962;stroke-miterlimit:0;-inkscape-stroke:none"
         id="rect1"
         width="10"
         height="140"
         x="174.25157"
         y="-39.240856"
         transform="rotate(45)" />
    </g>
    <g
       id="g12"
       style="fill:#ffe262;fill-opacity:1"
       transform="translate(19.99997,-23.499956)">
      <path
         d="m 90.857901,113.14462 a 15.000067,15.000022 45 0 0 -21.213215,0 15.000067,15.000022 45 0 0 8e-6,21.21321 15.000067,15.000022 45 0 0 21.213201,-1e-5 15.000067,15.000022 45 0 0 6e-6,-21.2132 z"
         style="fill:#ffe262;fill-opacity:1;stroke-width:0;stroke-miterlimit:0;paint-order:markers fill stroke"
         id="path1-9" />
      <path
         d="m 140.35539,162.64209 a 15.000078,15.000033 45 0 0 -21.21325,-2e-5 15.000078,15.000033 45 0 0 2e-5,21.21324 15.000078,15.000033 45 0 0 21.21321,-2e-5 15.000078,15.000033 45 0 0 2e-5,-21.2132 z"
         style="fill:#ffe262;fill-opacity:1;stroke-width:0;stroke-miterlimit:0;paint-order:markers fill stroke"
         id="path1-9-8" />
    </g>
    <path
       style="font-weight:bold;font-size:25.4px;font-family:'Ubuntu Mono';-inkscape-font-specification:'Ubuntu Mono Bold';fill:#3d79aa;stroke-width:603.735;stroke-miterlimit:0"
       d="m 12.049798,230.22479 v -17.6022 h 2.794 q 0.635,0.9906 1.27,2.1336 0.6604,1.143 1.27,2.3368 0.635,1.1684 1.1938,2.3114 0.5588,1.143 1.0414,2.1844 0.508,1.0414 0.8636,1.8542 v -10.8204 h 3.1496 v 17.6022 h -2.794 q -0.5842,-1.4478 -1.2446,-2.8956 -0.6604,-1.4732 -1.3716,-2.921 -0.6858,-1.4732 -1.4478,-2.9464 -0.762,-1.4732 -1.5748,-2.921 v 11.684 z m 19.786587,0.3048 q -1.27,0 -2.3114,-0.2286 -1.0414,-0.2286 -1.8034,-0.7366 -0.7366,-0.508 -1.143,-1.3462 -0.381,-0.8636 -0.381,-2.0828 0,-1.5748 0.7874,-2.4638 0.7874,-0.9144 2.0574,-1.2954 1.27,-0.4064 2.6924,-0.4064 0.7112,0 1.3208,0.0762 0.6096,0.0508 1.0922,0.1524 v -0.4318 q 0,-0.6604 -0.2794,-1.1684 -0.2794,-0.5334 -0.889,-0.8382 -0.6096,-0.3048 -1.6256,-0.3048 -0.9906,0 -1.905,0.1524 -0.9144,0.127 -1.4986,0.3302 l -0.4826,-2.8194 q 0.635,-0.2286 1.8288,-0.4064 1.2192,-0.2032 2.4892,-0.2032 2.1844,0 3.429,0.6604 1.2446,0.6604 1.7526,1.8796 0.5334,1.2192 0.5334,2.8956 v 7.9756 q -0.762,0.1778 -2.286,0.381 -1.4986,0.2286 -3.3782,0.2286 z m 0.254,-2.8194 q 0.5588,0 1.0922,-0.0254 0.5588,-0.0254 0.9652,-0.0508 v -3.0734 q -0.3302,-0.0508 -0.8128,-0.0762 -0.4826,-0.0508 -0.889,-0.0508 -0.7366,0 -1.3716,0.127 -0.635,0.127 -1.0414,0.4826 -0.381,0.3302 -0.381,0.9906 0,0.889 0.6604,1.2954 0.6858,0.381 1.778,0.381 z m 14.198586,2.8194 q -2.1844,0 -3.3782,-0.7874 -1.1684,-0.8128 -1.6256,-2.2098 -0.4318,-1.4224 -0.4318,-3.2258 v -7.4422 h 3.5052 v 6.985 q 0,1.8288 0.4318,2.7432 0.4572,0.889 1.7272,0.889 0.3556,0 0.7874,-0.0254 0.4572,-0.0508 0.8128,-0.1016 v -10.4902 h 3.5306 v 12.9032 q -0.9652,0.254 -2.3622,0.508 -1.397,0.254 -2.9972,0.254 z m 8.915386,-0.3048 v -19.1516 l 3.5052,-0.5842 v 11.6586 q 0.6858,-0.7874 1.3716,-1.7018 0.7112,-0.9398 1.3462,-1.8796 0.6604,-0.9398 1.1176,-1.7018 h 4.191 q -0.6604,0.8636 -1.6002,1.9304 -0.9144,1.0414 -1.8542,2.0828 -0.9398,1.016 -1.7272,1.8542 0.7112,0.6858 1.524,1.651 0.8382,0.9398 1.651,1.9812 0.8128,1.0414 1.4732,2.0574 0.6604,0.9906 1.0414,1.8034 h -3.9878 q -0.3556,-0.7366 -0.9144,-1.6002 -0.5334,-0.889 -1.1684,-1.778 -0.635,-0.889 -1.27,-1.651 -0.635,-0.7874 -1.1938,-1.2954 v 6.3246 z m 19.303988,0.3048 q -1.27,0 -2.3114,-0.2286 -1.0414,-0.2286 -1.8034,-0.7366 -0.7366,-0.508 -1.143,-1.3462 -0.381,-0.8636 -0.381,-2.0828 0,-1.5748 0.7874,-2.4638 0.7874,-0.9144 2.0574,-1.2954 1.27,-0.4064 2.6924,-0.4064 0.7112,0 1.3208,0.0762 0.6096,0.0508 1.0922,0.1524 v -0.4318 q 0,-0.6604 -0.2794,-1.1684 -0.2794,-0.5334 -0.889,-0.8382 -0.6096,-0.3048 -1.6256,-0.3048 -0.9906,0 -1.905,0.1524 -0.9144,0.127 -1.4986,0.3302 l -0.4826,-2.8194 q 0.635,-0.2286 1.8288,-0.4064 1.2192,-0.2032 2.4892,-0.2032 2.1844,0 3.429,0.6604 1.2446,0.6604 1.7526,1.8796 0.533399,1.2192 0.533399,2.8956 v 7.9756 q -0.761999,0.1778 -2.285999,0.381 -1.4986,0.2286 -3.3782,0.2286 z m 0.254,-2.8194 q 0.5588,0 1.0922,-0.0254 0.5588,-0.0254 0.9652,-0.0508 v -3.0734 q -0.3302,-0.0508 -0.8128,-0.0762 -0.4826,-0.0508 -0.889,-0.0508 -0.7366,0 -1.3716,0.127 -0.635,0.127 -1.0414,0.4826 -0.381,0.3302 -0.381,0.9906 0,0.889 0.6604,1.2954 0.6858,0.381 1.778,0.381 z m 8.610587,2.5146 v -17.3736 q 0.7112,-0.1778 1.5748,-0.254 0.889,-0.1016 1.7526,-0.127 0.8636,-0.0508 1.524,-0.0508 2.2606,0 3.8354,0.6096 1.5748,0.5842 2.3876,1.8796 0.8382,1.2954 0.8382,3.4036 0,3.1496 -1.8796,4.572 -1.8542,1.397 -5.2578,1.397 h -1.27 v 5.9436 z m 3.5052,-8.9916 h 1.4224 q 1.6764,0 2.54,-0.6604 0.8636,-0.6858 0.8636,-2.286 0,-1.5494 -0.8636,-2.1844 -0.8382,-0.635 -2.2098,-0.635 -0.3302,0 -0.889,0.0254 -0.5588,0 -0.8636,0.0508 z m 12.572984,13.7668 q -0.8636,0 -1.6002,-0.1524 -0.7366,-0.1524 -1.2192,-0.3556 l 0.6604,-2.921 q 0.5588,0.254 1.016,0.3556 0.4572,0.1016 0.9398,0.1016 1.041404,0 1.676404,-0.6858 0.635,-0.6858 0.9906,-1.6256 -1.2446,-2.4892 -2.514604,-5.7404 -1.2446,-3.2766 -2.286,-7.112 h 3.657604 q 0.3302,1.397 0.7874,3.0226 0.4826,1.6002 1.016,3.2004 0.5334,1.5748 1.0922,2.8956 0.4064,-1.3462 0.7874,-2.8956 0.4064,-1.5748 0.7874,-3.175 0.381,-1.6002 0.6858,-3.048 h 3.5814 q -1.0668,3.7592 -2.0828,7.2136 -1.016,3.429 -2.4892,6.5786 -0.7112,1.4986 -1.4478,2.4638 -0.7112,0.9652 -1.6764,1.4224 -0.9652,0.4572 -2.362204,0.4572 z m 20.015194,-4.4704 q -1.6256,0 -2.7686,-0.381 -1.143,-0.381 -1.7526,-1.524 -0.5842,-1.143 -0.5842,-3.3782 v -5.4864 h -3.048 v -2.8956 h 3.048 v -3.3782 l 3.5052,-0.5588 v 3.937 h 5.6134 v 2.8956 h -5.6134 v 5.4102 q 0,0.9906 0.2286,1.4986 0.254,0.4826 0.7112,0.6604 0.4572,0.1524 1.0414,0.1524 0.9906,0 1.7018,-0.127 0.7112,-0.127 1.7018,-0.5842 l 0.4826,3.0226 q -0.9652,0.4064 -2.1082,0.5588 -1.1176,0.1778 -2.159,0.1778 z m 6.85798,-0.3048 v -19.1516 l 3.4798,-0.5842 v 6.477 q 0.4318,-0.1524 1.0414,-0.2794 0.6096,-0.127 1.0414,-0.127 1.9812,0 3.0988,0.7874 1.143,0.762 1.6002,2.1336 0.4826,1.3716 0.4826,3.2004 v 7.5438 h -3.5052 v -7.0866 q 0,-1.2446 -0.2032,-2.0066 -0.1778,-0.7874 -0.6096,-1.143 -0.4318,-0.381 -1.2192,-0.381 -0.4826,0 -0.9652,0.127 -0.4826,0.1016 -0.762,0.2032 v 10.287 z m 19.55799,0.381 q -1.8796,0 -3.302,-0.889 -1.4224,-0.9144 -2.2352,-2.5146 -0.7874,-1.6002 -0.7874,-3.683 0,-2.1082 0.8128,-3.683 0.8382,-1.5748 2.2606,-2.4384 1.4224,-0.889 3.2512,-0.889 1.8796,0 3.2766,0.889 1.4224,0.8636 2.2098,2.4384 0.8128,1.5748 0.8128,3.683 0,2.0828 -0.7874,3.683 -0.7874,1.6002 -2.2098,2.5146 -1.397,0.889 -3.302,0.889 z m -0.0508,-3.048 q 1.3716,0 2.0574,-1.1176 0.7112,-1.1176 0.7112,-2.8956 0,-1.8034 -0.6604,-2.8956 -0.635,-1.0922 -2.0574,-1.0922 -1.3208,0 -2.0574,1.0922 -0.7112,1.0922 -0.7112,2.8956 0,1.778 0.6604,2.8956 0.6604,1.1176 2.0574,1.1176 z m 8.94079,2.667 v -12.954 q 0.9398,-0.254 2.3114,-0.4826 1.397,-0.2286 2.9972,-0.2286 2.1336,0 3.302,0.7874 1.1938,0.762 1.651,2.1336 0.4826,1.3716 0.4826,3.2004 v 7.5438 h -3.5052 v -7.0866 q 0,-1.2446 -0.1778,-2.0066 -0.1778,-0.7874 -0.6604,-1.143 -0.4572,-0.381 -1.3208,-0.381 -0.381,0 -0.7874,0.0508 -0.381,0.0254 -0.8128,0.0762 v 10.4902 z m 19.30398,0.3048 q -1.27,0 -2.3114,-0.2286 -1.0414,-0.2286 -1.8034,-0.7366 -0.7366,-0.508 -1.143,-1.3462 -0.381,-0.8636 -0.381,-2.0828 0,-1.5748 0.7874,-2.4638 0.7874,-0.9144 2.0574,-1.2954 1.27,-0.4064 2.6924,-0.4064 0.7112,0 1.3208,0.0762 0.6096,0.0508 1.0922,0.1524 v -0.4318 q 0,-0.6604 -0.2794,-1.1684 -0.2794,-0.5334 -0.889,-0.8382 -0.6096,-0.3048 -1.6256,-0.3048 -0.9906,0 -1.905,0.1524 -0.9144,0.127 -1.4986,0.3302 l -0.4826,-2.8194 q 0.635,-0.2286 1.8288,-0.4064 1.2192,-0.2032 2.4892,-0.2032 2.1844,0 3.429,0.6604 1.2446,0.6604 1.7526,1.8796 0.5334,1.2192 0.5334,2.8956 v 7.9756 q -0.762,0.1778 -2.286,0.381 -1.4986,0.2286 -3.3782,0.2286 z m 0.254,-2.8194 q 0.5588,0 1.0922,-0.0254 0.5588,-0.0254 0.9652,-0.0508 v -3.0734 q -0.3302,-0.0508 -0.8128,-0.0762 -0.4826,-0.0508 -0.889,-0.0508 -0.7366,0 -1.3716,0.127 -0.635,0.127 -1.0414,0.4826 -0.381,0.3302 -0.381,0.9906 0,0.889 0.6604,1.2954 0.6858,0.381 1.778,0.381 z m 14.22398,2.8194 q -1.016,0 -1.8034,-0.6604 -0.762,-0.6604 -0.762,-1.8796 0,-1.1938 0.762,-1.8542 0.7874,-0.6604 1.8034,-0.6604 0.9906,0 1.7526,0.6604 0.7874,0.6604 0.7874,1.8542 0,1.2192 -0.7874,1.8796 -0.762,0.6604 -1.7526,0.6604 z m 16.07819,0 q -2.7432,0 -4.445,-0.9144 -1.7018,-0.9398 -2.5146,-2.5146 -0.7874,-1.6002 -0.7874,-3.556 0,-1.4478 0.4572,-2.7178 0.4572,-1.2954 1.397,-2.2606 0.9398,-0.9652 2.3876,-1.4986 1.4478,-0.5588 3.429,-0.5588 1.1938,0 2.159,0.1778 0.9652,0.1524 1.9558,0.5588 l -0.762,2.8194 q -0.5588,-0.2032 -1.27,-0.3556 -0.6858,-0.1524 -1.778,-0.1524 -1.651,0 -2.6416,0.5334 -0.9652,0.508 -1.3716,1.397 -0.4064,0.889 -0.4064,2.0574 0,1.2192 0.4572,2.1082 0.4572,0.8636 1.4732,1.3462 1.016,0.4826 2.667,0.4826 0.8128,0 1.7272,-0.1016 0.9144,-0.127 1.6256,-0.381 l 0.508,2.8956 q -0.7112,0.254 -1.778,0.4318 -1.0668,0.2032 -2.4892,0.2032 z m 12.3698,0.0762 q -1.8796,0 -3.302,-0.889 -1.4224,-0.9144 -2.2352,-2.5146 -0.7874,-1.6002 -0.7874,-3.683 0,-2.1082 0.8128,-3.683 0.8382,-1.5748 2.2606,-2.4384 1.4224,-0.889 3.2512,-0.889 1.8796,0 3.2766,0.889 1.4224,0.8636 2.2098,2.4384 0.8128,1.5748 0.8128,3.683 0,2.0828 -0.7874,3.683 -0.7874,1.6002 -2.2098,2.5146 -1.397,0.889 -3.302,0.889 z m -0.0508,-3.048 q 1.3716,0 2.0574,-1.1176 0.7112,-1.1176 0.7112,-2.8956 0,-1.8034 -0.6604,-2.8956 -0.635,-1.0922 -2.0574,-1.0922 -1.3208,0 -2.0574,1.0922 -0.7112,1.0922 -0.7112,2.8956 0,1.778 0.6604,2.8956 0.6604,1.1176 2.0574,1.1176 z m 7.95018,2.667 v -12.8524 q 1.1176,-0.3302 2.2098,-0.4826 1.0922,-0.1778 1.905,-0.1778 0.7366,0 1.3208,0.1778 0.5842,0.1778 1.016,0.6096 0.4572,-0.2794 1.1176,-0.5334 0.6604,-0.254 1.3716,-0.254 1.4986,0 2.286,0.6096 0.7874,0.6096 1.0668,1.8288 0.3048,1.2192 0.3048,3.0734 v 8.001 h -2.8448 v -8.1534 q 0,-1.0668 -0.1778,-1.5748 -0.1524,-0.5334 -0.4318,-0.7112 -0.254,-0.1778 -0.5588,-0.1778 -0.254,0 -0.5588,0.0508 -0.3048,0.0254 -0.508,0.1524 0.1016,0.5334 0.1524,1.1938 0.0508,0.6604 0.0508,1.4478 v 2.6924 h -2.8448 v -3.0734 q 0,-1.3462 -0.2794,-1.905 -0.254,-0.5588 -0.8636,-0.5588 -0.1778,0 -0.4318,0.0254 -0.2286,0.0254 -0.4572,0.1016 v 10.4902 z"
       id="text1"
       aria-label="NaukaPythona.com" />
  </g>
</svg>
